<svg width="28" height="28" viewBox="0 0 28 28" fill="none" xmlns="http://www.w3.org/2000/svg">
<path d="M24.5941 23.6856L20.7992 19.9754L20.7103 19.8401C20.5449 19.6755 20.3188 19.5827 20.0828 19.5827C19.8467 19.5827 19.6206 19.6755 19.4552 19.8401C16.2301 22.7989 11.2607 22.9597 7.84253 20.2159C4.42439 17.4722 3.61825 12.6752 5.95875 9.00642C8.29925 5.33761 13.0601 3.9354 17.0839 5.72972C21.1078 7.52403 23.146 11.9581 21.8468 16.0913C21.7532 16.3898 21.8297 16.7146 22.0474 16.9431C22.2651 17.1716 22.591 17.2692 22.9022 17.1991C23.2135 17.129 23.4629 16.9019 23.5565 16.6033C25.1095 11.6985 22.7639 6.42018 18.037 4.18292C13.3101 1.94567 7.62044 3.42091 4.64871 7.6543C1.67698 11.8877 2.31499 17.6088 6.15002 21.1166C9.98504 24.6244 15.8662 24.8662 19.9889 21.6856L23.3489 24.9706C23.6959 25.3084 24.257 25.3084 24.604 24.9706C24.9507 24.6281 24.9507 24.0765 24.604 23.7339L24.5941 23.6856Z" fill="#9CA3AF"/>
</svg>
